<?xml version="1.0" encoding="UTF-8" standalone="no" ?>
<!DOCTYPE svg PUBLIC "-//W3C//DTD SVG 1.1//EN" "http://www.w3.org/Graphics/SVG/1.1/DTD/svg11.dtd">
<svg xmlns="http://www.w3.org/2000/svg" xmlns:xlink="http://www.w3.org/1999/xlink" version="1.1" width="1080" height="1080" viewBox="0 0 1080 1080" xml:space="preserve">
<desc>Created with Fabric.js 5.2.4</desc>
<defs>
</defs>
<g transform="matrix(1 0 0 1 540 540)" id="2cdbae18-55a0-4d01-83a1-e57bebde148d"  >
<rect style="stroke: none; stroke-width: 1; stroke-dasharray: none; stroke-linecap: butt; stroke-dashoffset: 0; stroke-linejoin: miter; stroke-miterlimit: 4; fill: rgb(255,255,255); fill-rule: nonzero; opacity: 1; visibility: hidden;" vector-effect="non-scaling-stroke"  x="-540" y="-540" rx="0" ry="0" width="1080" height="1080" />
</g>
<g transform="matrix(1 0 0 1 540 540)" id="e4feac5a-0645-43fe-82ef-87fc5db30638"  >
</g>
<g transform="matrix(1 0 0 1 540 540)"  >
<g style="" vector-effect="non-scaling-stroke"   >
		<g transform="matrix(0.13 0 0 -0.13 -1503.62 0)"  >
<path style="stroke: none; stroke-width: 1; stroke-dasharray: none; stroke-linecap: butt; stroke-dashoffset: 0; stroke-linejoin: miter; stroke-miterlimit: 4; fill: rgb(255,140,50); fill-rule: nonzero; opacity: 1;" vector-effect="non-scaling-stroke"  transform=" translate(-3724.88, -15000.84)" d="M 3505 18880 C 2431 18784 1482 18079 940 16975 C 717 16522 584 16064 518 15520 C 486 15266 486 14734 518 14480 C 586 13925 720 13469 950 13005 C 1438 12024 2257 11353 3195 11165 C 3389 11126 3502 11116 3730 11116 C 4055 11117 4279 11153 4585 11254 C 5030 11402 5423 11647 5778 11998 C 6420 12634 6827 13524 6937 14530 C 6962 14760 6962 15240 6937 15470 C 6807 16664 6256 17692 5410 18317 C 5010 18612 4544 18804 4075 18865 C 3927 18884 3639 18892 3505 18880 z M 4115 18561 C 5155 18382 6032 17562 6433 16393 C 6592 15931 6662 15506 6662 15000 C 6662 14494 6592 14069 6433 13607 C 5996 12333 4975 11464 3858 11413 L 3720 11407 L 3720 11541 C 3720 11862 3656 12155 3530 12415 C 3375 12735 3145 12985 2718 13297 L 2571 13405 L 2570 14638 C 2570 15805 2571 15870 2588 15870 C 2601 15870 2712 15609 3110 14640 L 3615 13410 L 3791 13410 L 3967 13410 L 4472 14637 C 4835 15521 4981 15866 4993 15868 C 5009 15871 5010 15789 5010 14641 L 5010 13410 L 5190 13410 L 5370 13410 L 5370 15025 L 5370 16640 L 5139 16638 L 4909 16635 L 4360 15295 C 3915 14206 3808 13954 3792 13952 C 3776 13949 3759 13984 3671 14197 C 3615 14333 3368 14938 3121 15540 L 2673 16635 L 2442 16638 L 2210 16640 L 2208 15154 L 2205 13667 L 2095 13753 C 1522 14199 1254 14657 1166 15340 C 1049 16245 1253 17070 1745 17675 C 1836 17787 2039 17985 2145 18066 C 2511 18345 2933 18516 3403 18575 C 3570 18596 3957 18589 4115 18561 z" stroke-linecap="round" />
</g>
		<g transform="matrix(0.13 0 0 -0.13 1196.41 -3.97)"  >
<path style="stroke: none; stroke-width: 1; stroke-dasharray: none; stroke-linecap: butt; stroke-dashoffset: 0; stroke-linejoin: miter; stroke-miterlimit: 4; fill: rgb(255,140,50); fill-rule: nonzero; opacity: 1;" vector-effect="non-scaling-stroke"  transform=" translate(-23975.08, -15030.61)" d="M 23880 16704 C 23397 16659 22967 16334 22735 15837 C 22442 15209 22523 14423 22935 13895 C 23069 13723 23268 13559 23445 13475 C 23754 13329 24112 13316 24423 13440 C 24797 13590 25102 13916 25266 14342 C 25336 14522 25390 14793 25390 14961 L 25390 15030 L 24755 15030 L 24120 15030 L 24120 14860 L 24120 14690 L 24551 14690 L 24982 14690 L 24975 14653 C 24963 14586 24909 14438 24862 14345 C 24739 14100 24568 13921 24355 13815 C 24232 13754 24115 13727 23975 13727 C 23720 13727 23497 13829 23302 14034 C 23112 14234 22985 14511 22945 14817 C 22892 15217 22991 15624 23214 15921 C 23416 16188 23682 16333 23975 16333 C 24221 16333 24433 16239 24625 16045 C 24746 15924 24853 15759 24912 15603 L 24928 15560 L 25124 15560 L 25319 15560 L 25284 15663 C 25175 15977 24972 16264 24731 16446 C 24580 16560 24378 16651 24202 16684 C 24117 16700 23951 16710 23880 16704 z" stroke-linecap="round" />
</g>
		<g transform="matrix(0.13 0 0 -0.13 1745.71 -4)"  >
<path style="stroke: none; stroke-width: 1; stroke-dasharray: none; stroke-linecap: butt; stroke-dashoffset: 0; stroke-linejoin: miter; stroke-miterlimit: 4; fill: rgb(255,140,50); fill-rule: nonzero; opacity: 1;" vector-effect="non-scaling-stroke"  transform=" translate(-28094.82, -15030.83)" d="M 27962 16699 C 27441 16635 27007 16262 26796 15698 C 26648 15302 26641 14831 26776 14415 C 26812 14305 26907 14108 26972 14008 C 27243 13593 27646 13358 28090 13357 C 28426 13356 28724 13479 28979 13725 C 29321 14054 29510 14519 29510 15030 C 29510 15535 29321 16004 28989 16325 C 28793 16515 28563 16638 28323 16684 C 28219 16703 28052 16711 27962 16699 z M 28297 16309 C 28516 16254 28704 16123 28856 15921 C 28998 15732 29091 15497 29125 15243 C 29203 14655 28951 14077 28510 13832 C 28329 13731 28098 13700 27895 13749 C 27551 13832 27259 14134 27125 14543 C 27071 14712 27055 14820 27055 15030 C 27055 15240 27071 15348 27125 15517 C 27195 15731 27292 15892 27440 16041 C 27688 16292 27992 16387 28297 16309 z" stroke-linecap="round" />
</g>
		<g transform="matrix(0.13 0 0 -0.13 -478.93 -3.89)"  >
<path style="stroke: none; stroke-width: 1; stroke-dasharray: none; stroke-linecap: butt; stroke-dashoffset: 0; stroke-linejoin: miter; stroke-miterlimit: 4; fill: rgb(255,140,50); fill-rule: nonzero; opacity: 1;" vector-effect="non-scaling-stroke"  transform=" translate(-11410, -15030)" d="M 9820 15030 L 9820 13410 L 10005 13410 L 10190 13410 L 10190 14640 C 10190 15805 10191 15870 10208 15870 C 10221 15870 10332 15608 10730 14640 L 11235 13410 L 11411 13410 L 11587 13410 L 12091 14638 C 12530 15705 12599 15865 12618 15868 L 12640 15871 L 12640 14641 L 12640 13410 L 12820 13410 L 13000 13410 L 13000 15030 L 13000 16650 L 12767 16650 L 12534 16650 L 11984 15308 C 11470 14051 11433 13965 11411 13965 C 11388 13965 11358 14036 10939 15060 C 10692 15662 10445 16266 10389 16403 L 10287 16650 L 10054 16650 L 9820 16650 L 9820 15030 z" stroke-linecap="round" />
</g>
		<g transform="matrix(0.13 0 0 -0.13 105.61 -3.98)"  >
<path style="stroke: none; stroke-width: 1; stroke-dasharray: none; stroke-linecap: butt; stroke-dashoffset: 0; stroke-linejoin: miter; stroke-miterlimit: 4; fill: rgb(255,140,50); fill-rule: nonzero; opacity: 1;" vector-effect="non-scaling-stroke"  transform=" translate(-15794.09, -15030.66)" d="M 15590 16646 C 15590 16643 15325 15919 15000 15035 C 14676 14151 14410 13424 14410 13419 C 14410 13413 14491 13411 14611 13412 L 14812 13415 L 14974 13870 L 15135 14325 L 15794 14325 L 16453 14325 L 16614 13870 L 16776 13415 L 16979 13412 C 17149 13410 17181 13412 17178 13424 C 17176 13431 16910 14161 16585 15044 L 15995 16650 L 15793 16650 C 15681 16650 15590 16648 15590 16646 z M 15829 16083 C 15931 15806 16326 14679 16322 14675 C 16316 14669 15260 14668 15260 14674 C 15260 14676 15744 16043 15775 16128 C 15785 16156 15809 16137 15829 16083 z" stroke-linecap="round" />
</g>
		<g transform="matrix(0.13 0 0 -0.13 649.73 -3.89)"  >
<path style="stroke: none; stroke-width: 1; stroke-dasharray: none; stroke-linecap: butt; stroke-dashoffset: 0; stroke-linejoin: miter; stroke-miterlimit: 4; fill: rgb(255,140,50); fill-rule: nonzero; opacity: 1;" vector-effect="non-scaling-stroke"  transform=" translate(-19875, -15030)" d="M 18590 15030 L 18590 13410 L 18785 13410 L 18980 13410 L 18980 14686 C 18980 15877 18981 15961 18997 15958 C 19006 15956 19408 15388 19895 14685 L 20777 13415 L 20968 13412 L 21160 13410 L 21160 15030 L 21160 16650 L 20970 16650 L 20780 16650 L 20780 15375 L 20780 14100 L 20758 14100 C 20739 14101 20575 14331 19850 15375 L 18966 16650 L 18778 16650 L 18590 16650 L 18590 15030 z" stroke-linecap="round" />
</g>
</g>
</g>
<g transform="matrix(NaN NaN NaN NaN 0 0)"  >
<g style=""   >
</g>
</g>
<g transform="matrix(NaN NaN NaN NaN 0 0)"  >
<g style=""   >
</g>
</g>
</svg>